<?xml version="1.0" standalone="no"?>
<!DOCTYPE svg PUBLIC "-//W3C//DTD SVG 20010904//EN"
 "http://www.w3.org/TR/2001/REC-SVG-20010904/DTD/svg10.dtd">
<svg version="1.0" xmlns="http://www.w3.org/2000/svg"
 width="280.000000pt" height="280.000000pt" viewBox="0 0 280.000000 280.000000"
 preserveAspectRatio="xMidYMid meet">
<metadata>
Created by potrace 1.11, written by Peter Selinger 2001-2013
</metadata>
<g transform="translate(0.000000,280.000000) scale(0.100000,-0.100000)"
fill="#000000" stroke="none">
<path d="M0 1400 l0 -1400 195 0 c179 0 195 1 196 18 0 22 0 2636 0 2720 l-1
62 -195 0 -195 0 0 -1400z"/>
<path d="M804 1403 l1 -1398 195 -3 195 -2 0 1400 0 1400 -196 0 -196 0 1
-1397z"/>
<path d="M1607 2793 c-2 -5 -3 -633 -3 -1398 l1 -1390 196 -3 196 -2 0 1400 0
1400 -193 0 c-106 0 -195 -3 -197 -7z"/>
<path d="M2409 2778 c-1 -29 0 -2725 0 -2755 l1 -23 195 0 195 0 0 1400 0
1400 -195 0 -195 0 -1 -22z"/>
</g>
</svg>
